<?xml version="1.0" encoding="UTF-8" standalone="no"?>
<!-- Created with Inkscape (http://www.inkscape.org/) -->

<svg
   width="61.674969mm"
   height="47.067745mm"
   viewBox="0 0 61.674969 47.067745"
   version="1.1"
   id="svg5"
   xml:space="preserve"
   xmlns:inkscape="http://www.inkscape.org/namespaces/inkscape"
   xmlns:sodipodi="http://sodipodi.sourceforge.net/DTD/sodipodi-0.dtd"
   xmlns="http://www.w3.org/2000/svg"
   xmlns:svg="http://www.w3.org/2000/svg"><sodipodi:namedview
     id="namedview7"
     pagecolor="#ffffff"
     bordercolor="#000000"
     borderopacity="0.25"
     inkscape:showpageshadow="2"
     inkscape:pageopacity="0.0"
     inkscape:pagecheckerboard="0"
     inkscape:deskcolor="#d1d1d1"
     inkscape:document-units="mm"
     showgrid="false" /><defs
     id="defs2" /><g
     inkscape:label="Layer 1"
     inkscape:groupmode="layer"
     id="layer1"
     transform="translate(-17.260701,-54.884646)"><path
       style="fill:#f88010;fill-opacity:1;stroke-width:0.264583"
       d="m 52.918312,101.78365 c -0.329054,-0.32905 -0.178485,-1.14652 0.211177,-1.14652 0.42894,0 0.93535,-0.786486 0.93535,-1.452656 0,-0.23602 -0.535781,-1.65958 -1.190625,-3.16348 -0.654844,-1.5039 -1.190625,-2.80691 -1.190625,-2.89557 0,-0.0887 0.289634,-0.16121 0.643628,-0.16121 0.430292,0 0.704718,0.19247 0.827931,0.58069 0.101368,0.31938 0.53648,1.36117 0.966918,2.3151 l 0.782611,1.73442 0.930706,-2.3151 c 0.711041,-1.7687 1.049057,-2.31511 1.432163,-2.31511 0.275802,0 0.50146,0.15307 0.50146,0.34014 0,0.7582 -2.978224,7.762396 -3.483565,8.192666 -0.566878,0.48267 -1.066374,0.58739 -1.367129,0.28663 z M 31.404448,99.376124 c -0.717854,-0.11567 -1.32397,-0.7816 -1.555382,-1.7089 -0.145623,-0.58352 -0.02735,-0.87351 0.620491,-1.52135 0.680615,-0.68061 1.001452,-0.80041 2.143679,-0.80041 1.417655,0 1.560431,-0.13104 0.991106,-0.90964 -0.356733,-0.48786 -1.535609,-0.50102 -2.622169,-0.0293 -0.586881,0.25481 -0.98086,-0.59041 -0.43766,-0.93893 1.488106,-0.95476 3.695583,-0.69766 4.302381,0.5011 0.199138,0.3934 0.424279,1.75708 0.500311,3.03039 0.126444,2.11753 0.09691,2.3151 -0.346031,2.3151 -0.26635,0 -0.562874,-0.12718 -0.658942,-0.28262 -0.09607,-0.15544 -0.370985,-0.20257 -0.610927,-0.10473 -0.905298,0.36913 -1.778163,0.53766 -2.326857,0.44926 z m 2.149499,-1.54923 c 0.235944,-0.23595 0.391646,-0.6229 0.346004,-0.8599 -0.117925,-0.61233 -2.289957,-0.60427 -2.677392,0.01 -0.652931,1.03511 1.398385,1.78296 2.331388,0.84996 z m 26.684391,1.46158 c -1.295556,-0.37508 -2.204749,-1.63301 -2.204749,-3.05041 0,-2.13068 1.129517,-3.37968 3.056361,-3.37968 1.502984,0 3.18757,1.63741 2.110002,2.05091 -0.237096,0.091 -0.64076,-0.0653 -0.93903,-0.36358 -1.553575,-1.55357 -3.84555,0.57606 -2.798691,2.60046 0.639937,1.2375 1.895186,1.49005 2.818225,0.56701 0.350361,-0.35036 0.725448,-0.4847 1.058333,-0.37905 0.601025,0.19076 0.626237,0.35704 0.149373,0.98509 -0.287009,0.378 -2.070531,1.32097 -2.33722,1.23571 -0.04106,-0.0131 -0.451726,-0.13303 -0.912604,-0.26646 z m 9.260417,-2.7e-4 c -2.111296,-0.61053 -2.962331,-3.53095 -1.526283,-5.2376 1.565783,-1.86082 4.096705,-1.52663 5.16595,0.68214 0.852334,1.76068 0.659619,1.93566 -2.131947,1.93566 -2.506088,0 -2.769097,0.14962 -1.860386,1.05833 0.679617,0.67962 1.793643,0.67631 2.521503,-0.007 0.554191,-0.52063 1.447247,-0.49075 1.447247,0.0484 0,0.35638 -1.336574,1.54656 -1.736788,1.54656 -0.185129,0 -0.495165,0.0487 -0.688967,0.10815 -0.193805,0.0595 -0.729451,-8e-4 -1.190329,-0.13418 z m 2.557751,-3.98805 c 0,-1.09974 -1.756214,-1.63293 -2.851544,-0.86573 -1.121786,0.78573 -0.746443,1.17562 1.131752,1.17562 1.137783,0 1.719792,-0.10487 1.719792,-0.30989 z m 3.836459,4.09416 c -1.186866,-0.24622 -1.984376,-0.69893 -1.984376,-1.12643 0,-0.71886 0.27517,-0.81387 1.108726,-0.38282 1.088414,0.56284 2.46315,0.40063 2.46315,-0.29064 0,-0.41264 -0.338635,-0.63635 -1.537836,-1.01591 -1.096092,-0.34692 -1.6213,-0.66993 -1.828405,-1.12448 -0.417341,-0.91596 0.10913,-1.89807 1.27966,-2.38715 0.812098,-0.33932 1.118737,-0.34715 2.04993,-0.0524 0.803061,0.2542 1.094984,0.48768 1.094984,0.87577 0,0.38488 -0.144288,0.50291 -0.529167,0.43287 -0.291041,-0.053 -1.005416,-0.1125 -1.5875,-0.1323 -0.875101,-0.0298 -1.058333,0.0508 -1.058333,0.46546 0,0.37433 0.335349,0.59843 1.322917,0.88404 1.631127,0.47172 2.248958,0.99827 2.248958,1.91669 0,1.21008 -1.609228,2.23467 -3.042708,1.9373 z m -55.43021,-4.31343 v -4.23334 h 0.656564 c 0.542395,0 0.85295,0.34973 1.785938,2.01117 1.949314,3.47131 1.71395,3.43493 3.367984,0.52061 1.164064,-2.05102 1.552681,-2.53178 2.04655,-2.53178 h 0.609631 v 4.23334 4.23333 h -0.661459 -0.661458 l -0.0083,-2.84427 -0.0083,-2.84427 -0.639468,1.05833 c -0.351708,0.58209 -0.939092,1.56223 -1.3053,2.1781 -0.389613,0.65524 -0.806916,1.06441 -1.00592,0.98631 -0.187049,-0.0734 -0.87587,-1.05355 -1.530714,-2.1781 l -1.190625,-2.04464 -0.0751,2.84427 c -0.07464,2.8268 -0.07911,2.84427 -0.727604,2.84427 h -0.652507 z m 15.345833,4.00331 c 0,-0.12651 0.486379,-0.84089 1.080841,-1.5875 l 1.080841,-1.35748 -1.080841,-1.35748 c -1.250054,-1.57 -1.312068,-1.81752 -0.455366,-1.81752 0.431094,0 0.853404,0.3289 1.3589,1.05833 0.403385,0.58209 0.80653,1.0558 0.89588,1.05269 0.08935,-0.003 0.497597,-0.47936 0.907217,-1.05833 0.52008,-0.73511 0.939139,-1.05269 1.389062,-1.05269 0.354364,0 0.6443,0.0646 0.6443,0.14365 0,0.079 -0.490556,0.79338 -1.090122,1.5875 l -1.090122,1.44385 1.090122,1.44386 c 0.599566,0.79412 1.090122,1.50849 1.090122,1.5875 0,0.079 -0.289936,0.14364 -0.6443,0.14364 -0.449923,0 -0.868982,-0.31758 -1.389062,-1.05268 -0.40962,-0.57898 -0.817868,-1.05523 -0.907217,-1.05834 -0.08935,-0.003 -0.492495,0.4706 -0.89588,1.05269 -0.505496,0.72943 -0.927806,1.05833 -1.3589,1.05833 -0.344011,0 -0.625475,-0.10351 -0.625475,-0.23002 z m 6.350001,-2.94498 c 0,-3.17942 0.006,-3.21095 0.595312,-3.12725 0.577948,0.0821 0.595313,0.17329 0.595313,3.12725 0,2.95396 -0.01736,3.04518 -0.595313,3.12726 -0.589312,0.0837 -0.595312,0.0522 -0.595312,-3.12726 z m 4.235799,2.68411 c -1.145183,-0.61417 -2.119133,-2.38561 -2.119133,-3.85433 0,-2.26807 1.74873,-4.12145 3.888725,-4.12145 1.998048,0 3.744989,1.33979 2.967871,2.27616 -0.279244,0.33647 -0.429152,0.28939 -1.087792,-0.34163 -1.727201,-1.65476 -4.445887,-0.40024 -4.445887,2.05154 0,1.43831 0.646168,2.59386 1.695675,3.03237 1.063159,0.44421 1.916652,0.26139 2.85882,-0.61237 0.593799,-0.55069 0.787403,-0.60834 1.118921,-0.3332 0.913124,0.75782 -1.065956,2.3911 -2.899418,2.39281 -0.584354,5.3e-4 -1.474357,-0.21991 -1.977782,-0.4899 z m 18.571285,0.17339 c -0.219277,-0.21928 -0.3175,-1.56986 -0.3175,-4.36562 0,-3.87174 0.02307,-4.04813 0.529166,-4.04813 0.502338,0 0.529373,0.17774 0.533218,3.50573 0.0042,3.62039 0.145579,4.29622 0.842856,4.02865 0.429144,-0.16468 0.858645,0.52722 0.593545,0.95616 -0.216767,0.35074 -1.80984,0.29466 -2.181285,-0.0768 z m -22.807084,-7.62 c 0,-0.70998 0.08643,-0.81828 0.595312,-0.746 0.436065,0.0619 0.595313,0.26149 0.595313,0.746 0,0.48452 -0.159248,0.68408 -0.595313,0.74601 -0.508886,0.0723 -0.595312,-0.036 -0.595312,-0.74601 z m 3.024383,-3.01837 c -3.137858,-0.98258 -5.387752,-3.94168 -5.399823,-7.10194 -0.0032,-0.83675 -0.109738,-1.52136 -0.23676,-1.52136 -0.127023,0 -0.811632,0.25845 -1.521355,0.57434 -2.091555,0.93091 -4.505558,0.77373 -8.698737,-0.56641 -4.662062,-1.48999 -6.685645,-1.63651 -9.501661,-0.68801 -1.660533,0.55931 -2.138864,0.63412 -2.313581,0.36185 -0.605157,-0.94303 2.788256,-2.18043 5.862116,-2.1376 1.458902,0.0203 2.860165,0.28785 5.291667,1.01025 1.819011,0.54043 3.783542,1.0974 4.365625,1.23771 1.480662,0.35692 3.807067,0.10402 5.097078,-0.55409 0.599511,-0.30585 1.245736,-0.49703 1.436055,-0.42484 0.217519,0.0825 0.520713,-0.29449 0.816365,-1.01507 1.922955,-4.68676 8.368393,-6.16876 12.191794,-2.80327 2.085788,1.83598 2.828285,3.46675 2.841372,6.24057 0.01071,2.26967 -0.777484,3.98786 -2.588755,5.64326 -2.144358,1.95982 -4.926005,2.5949 -7.6414,1.74461 z m 4.913117,-2.03095 c 2.650559,-1.20164 3.983276,-3.62442 3.557082,-6.46648 -0.593643,-3.95869 -5.031179,-6.26182 -8.716457,-4.52392 -1.57647,0.74342 -2.295044,1.47501 -3.020476,3.07514 -1.355106,2.98905 0.16469,6.73605 3.285059,8.0992 1.206299,0.52698 3.518326,0.4401 4.894792,-0.18394 z m 16.909288,2.0084 c -1.497743,-0.48104 -3.449743,-2.16154 -4.411906,-3.79827 -0.651052,-1.10749 -0.723424,-1.48206 -0.723424,-3.74414 0,-2.26208 0.07237,-2.63666 0.723424,-3.74415 0.953159,-1.62141 2.845909,-3.25884 4.365469,-3.77661 5.118548,-1.74406 10.493839,2.10832 10.493839,7.52076 0,3.05981 -1.879479,6.02499 -4.574609,7.21718 -1.554298,0.68754 -4.27553,0.83824 -5.872793,0.32523 z m 5.116206,-1.95735 c 2.327405,-0.99764 3.889857,-3.75112 3.547189,-6.25115 -0.598871,-4.36924 -4.995275,-6.68097 -8.922636,-4.69172 -1.65834,0.83996 -3.000132,2.59212 -3.287477,4.29289 -0.802082,4.74749 4.179726,8.5717 8.662924,6.64998 z m -39.88487,1.27106 c -0.582083,-0.14297 -2.129896,-0.60266 -3.439583,-1.02154 -3.820348,-1.22189 -5.335501,-1.41734 -7.495707,-0.96692 -1.016833,0.21201 -2.204847,0.56961 -2.640031,0.79465 -0.666572,0.3447 -0.838564,0.35215 -1.091573,0.0473 -0.817595,-0.98514 2.238982,-2.13538 5.671061,-2.13412 2.02628,8e-4 2.933425,0.16571 6.085417,1.1066 4.856128,1.44958 5.585019,1.54753 7.464729,1.00306 0.842107,-0.24392 1.678416,-0.56462 1.858464,-0.71267 0.180048,-0.14804 0.50747,-0.20006 0.727604,-0.11558 0.752164,0.28863 0.401125,0.91631 -0.856526,1.53151 -1.415614,0.69248 -4.449352,0.91828 -6.283855,0.46772 z m 25.30011,-5.19519 c -0.597119,-0.11304 -0.620437,-0.19243 -0.459261,-1.56379 0.09339,-0.79459 0.237903,-2.48096 0.321146,-3.74749 l 0.151347,-2.30278 -3.850971,-2.64583 c -2.118034,-1.45521 -3.854709,-2.80776 -3.859276,-3.00567 -0.0046,-0.19791 0.378624,-1.09088 0.851532,-1.98438 1.095164,-2.06915 4.385337,-5.43456 6.213325,-6.35541 1.6114,-0.81173 4.330634,-1.57485 4.588994,-1.28784 0.09797,0.10883 0.677984,1.71263 1.288915,3.56398 l 1.110785,3.3661 3.618553,0.0735 3.618552,0.0735 0.0834,0.86653 0.0834,0.86653 -4.316738,-0.0728 -4.316739,-0.0728 -1.105453,-3.175 c -0.608001,-1.74625 -1.145338,-3.26897 -1.194085,-3.38382 -0.140703,-0.3315 -2.219175,0.50392 -3.590346,1.4431 -0.689626,0.47236 -1.707287,1.34038 -2.26147,1.92894 -0.990683,1.05214 -2.564271,3.24795 -2.564271,3.57823 0,0.0926 1.666875,1.34101 3.704167,2.77416 4.255498,2.99356 3.942141,2.32134 3.422499,7.34209 -0.337066,3.25669 -0.46019,3.92364 -0.71556,3.87606 -0.106368,-0.0198 -0.476472,-0.0896 -0.822455,-0.15512 z m -24.935485,-8.80457 c -0.52706,-0.13329 -2.372529,-0.67397 -4.101042,-1.20153 -3.928043,-1.19886 -6.528143,-1.31545 -8.909705,-0.39953 -2.591331,0.9966 -3.25882,0.15949 -0.781482,-0.98007 1.329539,-0.61158 1.871625,-0.70145 4.299479,-0.71279 2.548228,-0.0119 3.075036,0.08 6.36606,1.11125 4.216752,1.32125 6.460008,1.47551 8.434066,0.57997 2.101946,-0.95355 2.676998,0.0406 0.611854,1.05783 -1.40307,0.69108 -4.290162,0.95684 -5.91923,0.54487 z m 32.417251,-13.33511 c -0.787141,-0.78714 -0.899583,-1.06773 -0.899583,-2.24479 0,-1.90728 0.946877,-2.957168 2.830256,-3.138136 1.240819,-0.119228 1.417444,-0.06096 2.308561,0.761597 2.307595,2.130049 0.938249,5.520909 -2.229535,5.520909 -0.909707,0 -1.272517,-0.1624 -2.009699,-0.89958 z m 3.010295,-1.0998 c 0.647832,-0.45376 0.796808,-1.65477 0.270539,-2.18104 -0.486069,-0.48606 -1.662475,-0.37791 -2.186393,0.20101 -0.599194,0.6621 -0.353068,1.79433 0.461288,2.12201 0.800817,0.32224 0.79035,0.32326 1.454566,-0.14198 z"
       id="path316"
       inkscape:export-filename="logo.svg"
       inkscape:export-xdpi="96"
       inkscape:export-ydpi="96" /></g></svg>
